<svg xmlns="http://www.w3.org/2000/svg" width="20.807" height="20.804" viewBox="0 0 20.807 20.804">
  <path id="Path_13" data-name="Path 13" d="M-613.8,21.547a3.539,3.539,0,0,1-.474-.334q-2.562-2.507-5.114-5.025c-.043-.042-.088-.082-.14-.131-.059.04-.115.075-.168.115a8.554,8.554,0,0,1-3.791,1.659,8.625,8.625,0,0,1-5.916-1.018,8.552,8.552,0,0,1-3.962-4.8,7.773,7.773,0,0,1-.389-1.923,1.049,1.049,0,0,0-.035-.155V8.793c.052-.346.094-.694.159-1.038a8.163,8.163,0,0,1,1.487-3.407,8.515,8.515,0,0,1,4.928-3.318,8.583,8.583,0,0,1,7.747,1.706,8.224,8.224,0,0,1,3.133,5.76,8.254,8.254,0,0,1-1.441,5.635c-.235.345-.5.668-.79,1.047a1.115,1.115,0,0,1,.174.119q2.564,2.518,5.124,5.04c.3.294.375.611.171.884a1.956,1.956,0,0,1-.421.326ZM-625.028,2.078a7.125,7.125,0,0,0-2.241.342,7.25,7.25,0,0,0-4.164,3.3,6.973,6.973,0,0,0-.8,5.3,7.047,7.047,0,0,0,3.1,4.4,7.3,7.3,0,0,0,5.212,1.136,7.151,7.151,0,0,0,4.138-2.065,7.053,7.053,0,0,0,2.134-5.5,6.816,6.816,0,0,0-1.262-3.712A7.36,7.36,0,0,0-625.028,2.078Z" transform="translate(633.783 -0.743)" fill="#fff"/>
</svg>
