<svg xmlns="http://www.w3.org/2000/svg" width="60.794" height="50.044" viewBox="0 0 60.794 50.044">
  <g id="Group_447" data-name="Group 447" transform="translate(1759.237 335.869)">
    <path id="Path_4415" data-name="Path 4415" d="M-1759.237-316.432c.117-1.134.2-2.276.359-3.4a15.756,15.756,0,0,1,8.476-12.252,29.272,29.272,0,0,1,9.426-2.954,83.658,83.658,0,0,1,16.068-.744,58.5,58.5,0,0,1,10.1,1.1,26.911,26.911,0,0,1,7.868,2.817,15.589,15.589,0,0,1,7.908,11.091c.3,1.561.39,3.163.586,4.82h-12.515c-.282-1.4-.492-2.783-.847-4.131a7.793,7.793,0,0,0-6.6-6.056,25.233,25.233,0,0,0-4.17-.455q-6.873-.091-13.748-.018a13.187,13.187,0,0,0-4.9,1,8.369,8.369,0,0,0-4.955,6.156c-.291,1.142-.44,2.319-.664,3.527-.142.012-.312.037-.482.037q-5.66,0-11.322,0a5.6,5.6,0,0,1-.586-.058Z" transform="translate(0 0)" fill="#91b40d"/>
    <path id="Path_4416" data-name="Path 4416" d="M-1759.237-321.44l11.5.024c.31,0,.621,0,.926,0,.2,2.623-.963,3.976-2.956,4.1a57.491,57.491,0,0,1-6.62-.012,2.851,2.851,0,0,1-2.731-2.6,2.182,2.182,0,0,0-.118-.319Z" transform="translate(0 6.906)" fill="#91b40d"/>
    <path id="Path_4417" data-name="Path 4417" d="M-1737.343-321.705h12.966c0-.791,0-1.573,0-2.354s.142-1.051.914-1.09a39.559,39.559,0,0,1,4.083,0c.768.04.926.322.932,1.088a9.319,9.319,0,0,0,.086,2.938c.306.853,1.195,1.489,1.795,2.246,3.583,4.517,7.1,9.083,10.248,13.923a4.832,4.832,0,0,1,.865,2.869c-.068,2.963-.022,5.928-.024,8.892,0,1.621-.63,2.243-2.262,2.243q-23.144,0-46.29.018a2.029,2.029,0,0,1-2.252-2.228c.065-3.2.006-6.4.035-9.6a2.544,2.544,0,0,1,.355-1.331c1.85-2.75,3.671-5.526,5.648-8.183,2.167-2.913,4.495-5.706,6.74-8.563a1.155,1.155,0,0,0,.2-.643c.022-.85,0-1.7.01-2.549.006-.787.166-1.078.912-1.112,1.4-.064,2.8-.027,4.2.009.6.015.853.408.845,1C-1737.35-323.35-1737.343-322.562-1737.343-321.705Zm13.515,7.993a1.758,1.758,0,0,0,1.708-1.706,1.769,1.769,0,0,0-1.7-1.721,1.758,1.758,0,0,0-1.734,1.739A1.753,1.753,0,0,0-1723.828-313.712Zm-.006,2.489a1.732,1.732,0,0,0-1.717,1.684,1.75,1.75,0,0,0,1.742,1.729,1.757,1.757,0,0,0,1.689-1.724A1.735,1.735,0,0,0-1723.834-311.223Zm-7.066-2.489a1.721,1.721,0,0,0,1.678-1.717,1.727,1.727,0,0,0-1.687-1.711,1.737,1.737,0,0,0-1.712,1.749A1.732,1.732,0,0,0-1730.9-313.712Zm1.677,4.2a1.7,1.7,0,0,0-1.674-1.708,1.717,1.717,0,0,0-1.729,1.724,1.732,1.732,0,0,0,1.715,1.687A1.71,1.71,0,0,0-1729.224-309.516Zm5.366,7.588a1.716,1.716,0,0,0,1.738-1.655,1.71,1.71,0,0,0-1.667-1.721,1.711,1.711,0,0,0-1.764,1.68A1.713,1.713,0,0,0-1723.858-301.927Zm-12.465-7.606a1.681,1.681,0,0,0-1.681-1.69,1.68,1.68,0,0,0-1.684,1.743,1.688,1.688,0,0,0,1.709,1.668A1.689,1.689,0,0,0-1736.323-309.533Zm-1.7,4.23a1.644,1.644,0,0,0-1.66,1.693,1.638,1.638,0,0,0,1.674,1.681,1.644,1.644,0,0,0,1.691-1.723A1.65,1.65,0,0,0-1738.028-305.3Zm1.7-10.149a1.7,1.7,0,0,0-1.7-1.687,1.7,1.7,0,0,0-1.671,1.714,1.7,1.7,0,0,0,1.725,1.714A1.7,1.7,0,0,0-1736.323-315.452Zm5.381,13.525a1.676,1.676,0,0,0,1.718-1.652,1.681,1.681,0,0,0-1.644-1.724,1.678,1.678,0,0,0-1.755,1.678A1.684,1.684,0,0,0-1730.942-301.927Z" transform="translate(1.414 5.106)" fill="#91b40d"/>
    <path id="Path_4418" data-name="Path 4418" d="M-1726.632-321.4h12.413a3.042,3.042,0,0,1-2.706,3.809,53.861,53.861,0,0,1-6.91,0C-1725.591-317.695-1726.793-318.874-1726.632-321.4Z" transform="translate(15.599 6.925)" fill="#91b40d"/>
  </g>
</svg>
