<svg xmlns="http://www.w3.org/2000/svg" width="60.907" height="60.918" viewBox="0 0 60.907 60.918">
  <g id="Group_448" data-name="Group 448" transform="translate(2351.661 501.433)">
    <path id="Path_4419" data-name="Path 4419" d="M-2247.095-501.433c1.075.234,2.167.412,3.224.711a17.35,17.35,0,0,1,9.7,6.931,17.183,17.183,0,0,1,3.1,8.42,17.873,17.873,0,0,1-2.8,11.424c-2.712,4.324-5.426,8.65-8,13.055-1.615,2.762-2.983,5.669-4.45,8.517a2.685,2.685,0,0,1-2.086,1.653,2.419,2.419,0,0,1-2.349-.95,5.077,5.077,0,0,1-.51-.867c-2.7-5.352-5.351-10.727-8.559-15.8-1-1.588-2.068-3.142-3.161-4.67a17.942,17.942,0,0,1-3.334-7.963,17.211,17.211,0,0,1,2.483-12.058,17.67,17.67,0,0,1,11.733-8.089c.634-.13,1.278-.211,1.918-.315Zm-1.669,10.181a7.628,7.628,0,0,0-7.606,7.59,7.62,7.62,0,0,0,7.618,7.576,7.615,7.615,0,0,0,7.6-7.588A7.622,7.622,0,0,0-2248.764-491.252Z" transform="translate(-72.45 0)" fill="#91b40d"/>
    <path id="Path_4420" data-name="Path 4420" d="M-2351.661-241.86a21.831,21.831,0,0,1,1.137-2.7,10.327,10.327,0,0,1,3.621-3.457,30.828,30.828,0,0,1,10.024-3.836,2.474,2.474,0,0,1,2.912,1.831,2.512,2.512,0,0,1-1.7,3.052c-1.56.5-3.156.9-4.694,1.453a13.731,13.731,0,0,0-5.39,3.136c-1.033,1.063-1.063,1.909-.08,3a10.543,10.543,0,0,0,3.586,2.381,39.562,39.562,0,0,0,10.116,2.875,66.32,66.32,0,0,0,13.322.814,53.076,53.076,0,0,0,17.205-3.081,14.972,14.972,0,0,0,4.5-2.481,5.914,5.914,0,0,0,.589-.584,1.832,1.832,0,0,0-.052-2.828,9.3,9.3,0,0,0-3.51-2.385c-2.114-.815-4.281-1.494-6.437-2.2a2.582,2.582,0,0,1-2-2.368,2.377,2.377,0,0,1,1.513-2.449,3.15,3.15,0,0,1,1.671-.131,31.731,31.731,0,0,1,9.594,3.662,11.313,11.313,0,0,1,4.034,3.869,6.856,6.856,0,0,1-1.206,8.444,17.257,17.257,0,0,1-5.667,3.729,46.441,46.441,0,0,1-12.282,3.233,73.284,73.284,0,0,1-12.862.669,59.146,59.146,0,0,1-18.057-3.074,19.592,19.592,0,0,1-7.623-4.451,7.349,7.349,0,0,1-2.164-4.007.9.9,0,0,0-.1-.214Z" transform="translate(0 -212.351)" fill="#91b40d"/>
    <path id="Path_4421" data-name="Path 4421" d="M-2159.177-396.762a2.564,2.564,0,0,1-2.484,2.638,2.56,2.56,0,0,1-2.579-2.481,2.527,2.527,0,0,1,2.362-2.613A2.523,2.523,0,0,1-2159.177-396.762Z" transform="translate(-159.499 -86.986)" fill="#91b40d"/>
  </g>
</svg>
