<svg xmlns="http://www.w3.org/2000/svg" width="350" height="318.712" viewBox="0 0 350 318.712">
  <g id="Group_451" data-name="Group 451" transform="translate(-1041.983 -718.001)">
    <g id="Group_444" data-name="Group 444" transform="translate(144.606 471.406)" opacity="0.22">
      <path id="Path_4310" data-name="Path 4310" d="M920.6,446.616a14.627,14.627,0,0,1-7.221-1.92,1.391,1.391,0,1,1,1.407-2.4c3.071,1.8,7.81,2.362,10.929-.038a14.642,14.642,0,0,0,3.593-4.88c.346-.633.7-1.29,1.093-1.931a19.406,19.406,0,0,1,5.463-6.152c-5.193-1.934-11.377-3.447-17.482-2.072-4.408.994-9.434,4.015-8.341,12.763a1.391,1.391,0,0,1-2.761.346c-1.041-8.32,2.781-14.088,10.489-15.823,8.176-1.841,16.245.9,22.358,3.5a1.392,1.392,0,0,1-.545,2.673h-.029a2.81,2.81,0,0,0-1.307.407,15.6,15.6,0,0,0-5.466,5.8c-.355.589-.7,1.219-1.029,1.826a16.986,16.986,0,0,1-4.341,5.753,11.06,11.06,0,0,1-6.811,2.151" transform="translate(10.262 17.387)" fill="#91b40d"/>
      <path id="Path_4311" data-name="Path 4311" d="M936.8,488.459A32.175,32.175,0,0,1,925.7,426.084a1.393,1.393,0,0,1,.961,2.614,29.389,29.389,0,1,0,39.518,27.593,29.127,29.127,0,0,0-2.626-12.16,1.391,1.391,0,0,1,2.532-1.155A32.18,32.18,0,0,1,936.8,488.459" transform="translate(5.47 21.422)" fill="#91b40d"/>
      <path id="Path_4312" data-name="Path 4312" d="M925.9,457.563a1.4,1.4,0,0,1-1.374-1.181c-1.975-12.848-16.011-19.035-16.154-19.1a1.392,1.392,0,0,1,.317-2.649c.381-.064,9.408-1.539,15.808,2.3a1.392,1.392,0,1,1-1.433,2.386,19.092,19.092,0,0,0-9.276-2.227c4.783,3.074,12,9.208,13.49,18.865a1.39,1.39,0,0,1-1.163,1.585,1.334,1.334,0,0,1-.214.018" transform="translate(11.064 37.459)" fill="#91b40d"/>
      <path id="Path_4313" data-name="Path 4313" d="M924.334,482.942a1.4,1.4,0,0,1-.677-.176l-9.551-5.308a1.388,1.388,0,0,1-.686-.938c-.17-.835-3.693-20.814,38.741-52.337a1.391,1.391,0,0,1,1.767,2.145c-26.948,24.6-28.194,54.96-28.2,55.262a1.391,1.391,0,0,1-1.392,1.351m-8.238-7.561,7.031,3.907a88.848,88.848,0,0,1,16.749-41.493c-23.106,20.931-23.915,34.638-23.78,37.587" transform="translate(22.179 17.387)" fill="#91b40d"/>
      <path id="Path_4314" data-name="Path 4314" d="M1057.7,457.282H998.049a3.408,3.408,0,0,1-3.406-3.406V441.216h2.7v12.661a.71.71,0,0,0,.709.709H1057.7a.712.712,0,0,0,.709-.709V441.216h2.7v12.661a3.408,3.408,0,0,1-3.405,3.406" transform="translate(179.263 50.802)" fill="#91b40d"/>
      <path id="Path_4315" data-name="Path 4315" d="M997.339,451.292h-2.7V437.6a3.408,3.408,0,0,1,3.406-3.406H1057.7a3.408,3.408,0,0,1,3.405,3.406v13.689h-2.7V437.6a.71.71,0,0,0-.709-.709H998.049a.71.71,0,0,0-.709.709Z" transform="translate(179.263 37.25)" fill="#91b40d"/>
      <rect id="Rectangle_14" data-name="Rectangle 14" width="60.291" height="2.696" transform="translate(1176.992 488.932)" fill="#91b40d"/>
      <path id="Path_4316" data-name="Path 4316" d="M1002.025,438.818a2.057,2.057,0,1,1-2.057-2.054,2.059,2.059,0,0,1,2.057,2.054" transform="translate(185.571 42.204)" fill="#91b40d"/>
      <path id="Path_4317" data-name="Path 4317" d="M1002.025,444.785a2.057,2.057,0,1,1-2.057-2.057,2.056,2.056,0,0,1,2.057,2.057" transform="translate(185.571 53.721)" fill="#91b40d"/>
      <path id="Path_4318" data-name="Path 4318" d="M1016.764,438.818a2.057,2.057,0,1,1-2.057-2.054,2.059,2.059,0,0,1,2.057,2.054" transform="translate(214.028 42.204)" fill="#91b40d"/>
      <path id="Path_4319" data-name="Path 4319" d="M1016.764,444.785a2.057,2.057,0,1,1-2.057-2.057,2.056,2.056,0,0,1,2.057,2.057" transform="translate(214.028 53.721)" fill="#91b40d"/>
      <path id="Path_4320" data-name="Path 4320" d="M998,444.038a1.348,1.348,0,0,1-1.348-1.348v-1.946c0-5.961,4.789-10.677,12.2-12.013l1.582-.249a1.348,1.348,0,1,1,.416,2.664l-1.55.243c-6.128,1.1-9.953,4.692-9.953,9.355v1.946A1.348,1.348,0,0,1,998,444.038" transform="translate(183.133 26.185)" fill="#91b40d"/>
      <path id="Path_4321" data-name="Path 4321" d="M1012.863,443.044h0a1.348,1.348,0,0,1-1.348-1.348V439.75c0-3.546-2.157-6.454-6.075-8.186a1.349,1.349,0,0,1,1.09-2.468c4.883,2.16,7.681,6.043,7.681,10.653V441.7a1.348,1.348,0,0,1-1.348,1.348" transform="translate(198.554 27.178)" fill="#91b40d"/>
      <path id="Path_4322" data-name="Path 4322" d="M1005.85,434.29a7.67,7.67,0,0,1-4.944-1.832,1.349,1.349,0,1,1,1.735-2.066,4.925,4.925,0,0,0,6.418,0,1.349,1.349,0,1,1,1.735,2.066,7.669,7.669,0,0,1-4.944,1.832" transform="translate(190.424 29.294)" fill="#91b40d"/>
      <path id="Path_4323" data-name="Path 4323" d="M1006.6,437.706a1.348,1.348,0,0,1-1.348-1.348,6.008,6.008,0,0,0-4.3-5.9,1.348,1.348,0,1,1,.853-2.559,8.708,8.708,0,0,1,6.146,8.455,1.348,1.348,0,0,1-1.348,1.348" transform="translate(189.656 24.961)" fill="#91b40d"/>
      <path id="Path_4324" data-name="Path 4324" d="M1003.174,439.238h-.018a1.348,1.348,0,0,1-1.348-1.348v-3.81a7.336,7.336,0,0,1,2.435-5.463c1.709-1.419,4.091-1.864,7.087-1.328a8.783,8.783,0,0,0,5.061-.566,1.349,1.349,0,0,1,1.82,1.263c0,7.218-6.037,8.13-10.032,8.734-1.627.249-3.658.554-3.658,1.169a1.347,1.347,0,0,1-1.348,1.348m5.844-9.472a4.086,4.086,0,0,0-4.51,4.326v.642a20.084,20.084,0,0,1,3.268-.677c3.939-.6,6.732-1.26,7.517-4.176a11.2,11.2,0,0,1-4.44.065,10.324,10.324,0,0,0-1.835-.179" transform="translate(193.097 22.658)" fill="#91b40d"/>
      <path id="Path_4325" data-name="Path 4325" d="M1018.212,443.691a1.292,1.292,0,0,1-.234-.02,1.351,1.351,0,0,1-1.1-1.562l.337-1.917c.612-3.49-1.011-6.729-4.572-9.112a1.347,1.347,0,1,1,1.5-2.239c4.437,2.969,6.527,7.277,5.73,11.817l-.334,1.917a1.349,1.349,0,0,1-1.328,1.117" transform="translate(212.867 26.467)" fill="#91b40d"/>
      <path id="Path_4326" data-name="Path 4326" d="M1013.872,433.951a7.607,7.607,0,0,1-5.844-2.769,1.349,1.349,0,1,1,2.063-1.738,4.924,4.924,0,0,0,6.325,1.108,1.349,1.349,0,0,1,1.351,2.336,7.771,7.771,0,0,1-3.9,1.064" transform="translate(204.494 27.147)" fill="#91b40d"/>
      <path id="Path_4327" data-name="Path 4327" d="M1012.964,437.353a1.292,1.292,0,0,1-.235-.021,1.352,1.352,0,0,1-1.1-1.562,6.007,6.007,0,0,0-3.218-6.55,1.349,1.349,0,1,1,1.281-2.374,8.712,8.712,0,0,1,4.6,9.39,1.349,1.349,0,0,1-1.328,1.117" transform="translate(204.485 22.746)" fill="#91b40d"/>
      <path id="Path_4328" data-name="Path 4328" d="M1010.451,437.412a1.548,1.548,0,0,1-.232-.02l-.023-.006a1.347,1.347,0,0,1-1.09-1.559l.657-3.751a7.329,7.329,0,0,1,3.338-4.962c1.931-1.1,4.358-1.131,7.213-.085a8.792,8.792,0,0,0,5.082.316,1.349,1.349,0,0,1,1.577,1.559c-1.245,7.107-7.35,6.966-11.391,6.87-1.647-.035-3.693-.085-3.8.522a1.35,1.35,0,0,1-1.328,1.117m6.014-8.449a4.016,4.016,0,0,0-2.025.492,4.685,4.685,0,0,0-2.022,3.095l-.111.633a19.6,19.6,0,0,1,3.335-.1c3.983.091,6.849-.082,8.124-2.816a11.224,11.224,0,0,1-4.381-.7,8.615,8.615,0,0,0-2.919-.6" transform="translate(207.147 21.935)" fill="#91b40d"/>
      <path id="Path_4329" data-name="Path 4329" d="M990.507,510.658l-.085,0-7.722-.46-8.622.46-.073,0a14.8,14.8,0,0,1-10.82-4.862l-1.978-2.154a47,47,0,0,1-12.18-31.971v-4.088c0-11.8,9.6-21.163,24.466-23.844l3.294-.513a1.422,1.422,0,1,1,.437,2.811l-3.256.51c-13.616,2.456-22.095,10.518-22.095,21.037v4.088a44.162,44.162,0,0,0,11.43,30.046l1.978,2.154a11.783,11.783,0,0,0,8.687,3.942l8.66-.46a1.48,1.48,0,0,1,.161,0l7.76.46a11.792,11.792,0,0,0,8.684-3.942l1.978-2.154a44.161,44.161,0,0,0,11.43-30.046v-4.088c0-7.922-4.956-14.657-13.6-18.481a1.423,1.423,0,1,1,1.152-2.6c9.721,4.3,15.3,11.984,15.3,21.084v4.088a46.992,46.992,0,0,1-12.183,31.971l-1.975,2.154a14.8,14.8,0,0,1-10.82,4.862" transform="translate(91.187 54.649)" fill="#91b40d"/>
      <path id="Path_4330" data-name="Path 4330" d="M966.943,452.616a14.7,14.7,0,0,1-9.478-3.514,1.422,1.422,0,1,1,1.829-2.177,11.739,11.739,0,0,0,15.3,0,1.422,1.422,0,1,1,1.829,2.177,14.7,14.7,0,0,1-9.478,3.514" transform="translate(106.5 61.178)" fill="#91b40d"/>
      <path id="Path_4331" data-name="Path 4331" d="M968.518,459.795a1.421,1.421,0,0,1-1.421-1.421,13.98,13.98,0,0,0-10-13.725,1.423,1.423,0,0,1,.9-2.7,16.92,16.92,0,0,1,11.946,16.424,1.421,1.421,0,0,1-1.422,1.421" transform="translate(104.887 52.076)" fill="#91b40d"/>
      <path id="Path_4332" data-name="Path 4332" d="M961.325,463.014h-.038a1.421,1.421,0,0,1-1.421-1.421v-8c.015-1.562.384-6.893,4.6-10.389,3.256-2.7,7.881-3.534,13.736-2.485a19.737,19.737,0,0,0,11.374-1.254,1.423,1.423,0,0,1,1.92,1.333c0,13.945-11.488,15.682-19.876,16.952-5.5.832-8.874,1.465-8.874,3.848a1.421,1.421,0,0,1-1.422,1.421M973.6,443.12a9.969,9.969,0,0,0-10.885,10.48v3.458c2.142-1.166,5.264-1.638,8.484-2.128,7.673-1.161,16.3-2.465,17.35-12.1a21.672,21.672,0,0,1-10.844.686,23.358,23.358,0,0,0-4.106-.4" transform="translate(112.116 47.239)" fill="#91b40d"/>
      <path id="Path_4333" data-name="Path 4333" d="M989.043,450.429a3.423,3.423,0,1,1-4.472-1.852,3.422,3.422,0,0,1,4.472,1.852" transform="translate(155.735 64.508)" fill="#91b40d"/>
      <path id="Path_4334" data-name="Path 4334" d="M906.53,421.49a3.423,3.423,0,1,1,1.852-4.472,3.423,3.423,0,0,1-1.852,4.472" transform="translate(0 0)" fill="#91b40d"/>
      <path id="Path_4335" data-name="Path 4335" d="M941.793,453.049a3.423,3.423,0,1,1-1.852-4.472,3.423,3.423,0,0,1,1.852,4.472" transform="translate(64.508 64.508)" fill="#91b40d"/>
      <path id="Path_4336" data-name="Path 4336" d="M1017.982,421.49a3.423,3.423,0,1,1,4.472-1.852,3.422,3.422,0,0,1-4.472,1.852" transform="translate(220.242 0)" fill="#91b40d"/>
    </g>
    <g id="Group_445" data-name="Group 445" transform="translate(140.188 401.463)" opacity="0.22">
      <path id="Path_4341" data-name="Path 4341" d="M932.476,349.82a1.383,1.383,0,0,1-.944-2.393,10.118,10.118,0,0,0,3.214-6.573,9.335,9.335,0,0,0-2.8-.562c-2.715,0-6,2.207-6,4.946a1.383,1.383,0,1,1-2.766,0c0-2.739-3.283-4.946-6-4.946a9.356,9.356,0,0,0-2.8.562,10.137,10.137,0,0,0,3.217,6.573,1.383,1.383,0,0,1-1.888,2.02,13.019,13.019,0,0,1-4.131-9.483,1.385,1.385,0,0,1,.764-1.239,11.911,11.911,0,0,1,4.838-1.2,9.591,9.591,0,0,1,7.387,3.71,9.59,9.59,0,0,1,7.384-3.71,11.92,11.92,0,0,1,4.841,1.2,1.385,1.385,0,0,1,.764,1.239,13.03,13.03,0,0,1-4.131,9.483,1.377,1.377,0,0,1-.944.373" transform="translate(19.622 42.116)" fill="#91b40d"/>
      <path id="Path_4342" data-name="Path 4342" d="M924.563,359.27a13,13,0,0,1-12.989-12.989,1.385,1.385,0,0,1,.764-1.239,11.919,11.919,0,0,1,4.841-1.2,9.59,9.59,0,0,1,7.384,3.71,9.592,9.592,0,0,1,7.388-3.71,11.91,11.91,0,0,1,4.838,1.2,1.385,1.385,0,0,1,.764,1.239,13,13,0,0,1-12.989,12.989m-10.183-12.1a10.222,10.222,0,0,0,20.367,0,9.322,9.322,0,0,0-2.8-.562c-2.715,0-6,2.207-6,4.946a1.383,1.383,0,1,1-2.766,0c0-2.739-3.283-4.946-6-4.946a9.342,9.342,0,0,0-2.8.562" transform="translate(19.622 54.792)" fill="#91b40d"/>
      <path id="Path_4343" data-name="Path 4343" d="M932.476,352.978a1.383,1.383,0,0,1-.944-2.393,10.117,10.117,0,0,0,3.214-6.572,9.332,9.332,0,0,0-2.8-.562c-2.715,0-6,2.207-6,4.946a1.383,1.383,0,1,1-2.766,0c0-2.739-3.283-4.946-6-4.946a9.353,9.353,0,0,0-2.8.562,10.136,10.136,0,0,0,3.217,6.572,1.383,1.383,0,1,1-1.888,2.021,13.018,13.018,0,0,1-4.131-9.483,1.385,1.385,0,0,1,.764-1.239,11.909,11.909,0,0,1,4.838-1.2,9.591,9.591,0,0,1,7.387,3.71,9.59,9.59,0,0,1,7.384-3.71,11.918,11.918,0,0,1,4.841,1.2,1.385,1.385,0,0,1,.764,1.239,13.03,13.03,0,0,1-4.131,9.483,1.376,1.376,0,0,1-.944.373" transform="translate(19.622 48.453)" fill="#91b40d"/>
      <path id="Path_4344" data-name="Path 4344" d="M925.562,346.264a1.382,1.382,0,0,1-1.38-1.311,9.108,9.108,0,0,0-3.864-7.387,9.108,9.108,0,0,0-3.863,7.387,1.383,1.383,0,0,1-2.763-.144c.352-6.621,5.06-10.09,6.626-10.09s6.275,3.47,6.627,10.09a1.382,1.382,0,0,1-1.308,1.452l-.075,0" transform="translate(23.866 36.481)" fill="#91b40d"/>
      <path id="Path_4345" data-name="Path 4345" d="M916.817,341.007a1.383,1.383,0,0,1-1.383-1.383v-5.277a1.383,1.383,0,1,1,2.766,0v5.277a1.383,1.383,0,0,1-1.383,1.383" transform="translate(27.367 32.961)" fill="#91b40d"/>
      <path id="Path_4346" data-name="Path 4346" d="M916.817,358.206a1.383,1.383,0,0,1-1.383-1.383v-7.387a1.383,1.383,0,1,1,2.766,0v7.387a1.383,1.383,0,0,1-1.383,1.383" transform="translate(27.367 63.24)" fill="#91b40d"/>
      <path id="Path_4347" data-name="Path 4347" d="M920.677,344.869a1.383,1.383,0,0,1-1.383-1.383v-6.332a1.383,1.383,0,1,1,2.766,0v6.332a1.383,1.383,0,0,1-1.383,1.383" transform="translate(35.113 38.594)" fill="#91b40d"/>
      <path id="Path_4348" data-name="Path 4348" d="M912.957,344.869a1.383,1.383,0,0,1-1.383-1.383v-6.332a1.383,1.383,0,0,1,2.766,0v6.332a1.383,1.383,0,0,1-1.383,1.383" transform="translate(19.622 38.594)" fill="#91b40d"/>
      <path id="Path_4349" data-name="Path 4349" d="M912.27,355.4h-6.332a1.383,1.383,0,1,1,0-2.766H911.7l5.923-5.926a1.384,1.384,0,0,1,1.957,1.957l-6.332,6.329a1.384,1.384,0,0,1-.977.406" transform="translate(5.537 59.72)" fill="#91b40d"/>
      <path id="Path_4350" data-name="Path 4350" d="M936.145,355.4h-6.329a1.383,1.383,0,0,1-.98-.406l-6.329-6.329a1.383,1.383,0,0,1,1.954-1.957l5.926,5.926h5.758a1.383,1.383,0,1,1,0,2.766" transform="translate(40.746 59.72)" fill="#91b40d"/>
      <path id="Path_4351" data-name="Path 4351" d="M950.243,364.882a1.375,1.375,0,0,1-.977-.406l-11.2-11.2H922.329l-11.2,11.2a1.382,1.382,0,0,1-1.954-1.954l11.606-11.606a1.371,1.371,0,0,1,.977-.406h16.882a1.371,1.371,0,0,1,.977.406l11.606,11.606a1.383,1.383,0,0,1-.977,2.36" transform="translate(13.987 68.17)" fill="#91b40d"/>
      <path id="Path_4352" data-name="Path 4352" d="M912.745,340.8a2.111,2.111,0,1,1-2.111-2.111,2.109,2.109,0,0,1,2.111,2.111" transform="translate(13.501 44.447)" fill="#91b40d"/>
      <path id="Path_4353" data-name="Path 4353" d="M921.86,340.8a2.111,2.111,0,1,0,2.111-2.111,2.11,2.11,0,0,0-2.111,2.111" transform="translate(40.262 44.447)" fill="#91b40d"/>
      <path id="Path_4354" data-name="Path 4354" d="M912.745,348.168a2.111,2.111,0,1,1-2.111-2.111,2.11,2.11,0,0,1,2.111,2.111" transform="translate(13.501 59.234)" fill="#91b40d"/>
      <path id="Path_4355" data-name="Path 4355" d="M921.86,348.168a2.111,2.111,0,1,0,2.111-2.111,2.11,2.11,0,0,0-2.111,2.111" transform="translate(40.262 59.234)" fill="#91b40d"/>
      <path id="Path_4356" data-name="Path 4356" d="M912.745,356.239a2.111,2.111,0,1,1-2.111-2.111,2.11,2.11,0,0,1,2.111,2.111" transform="translate(13.501 75.43)" fill="#91b40d"/>
      <path id="Path_4357" data-name="Path 4357" d="M926.08,356.239a2.111,2.111,0,1,1-2.111-2.111,2.11,2.11,0,0,1,2.111,2.111" transform="translate(40.26 75.43)" fill="#91b40d"/>
      <path id="Path_4358" data-name="Path 4358" d="M908.044,359.633a1.383,1.383,0,0,1-1.383-1.383V346.644a1.37,1.37,0,0,1,.406-.977l6.329-6.332a1.384,1.384,0,1,1,1.957,1.957l-5.926,5.923V358.25a1.383,1.383,0,0,1-1.383,1.383" transform="translate(9.763 44.931)" fill="#91b40d"/>
      <path id="Path_4359" data-name="Path 4359" d="M929.816,359.633a1.383,1.383,0,0,1-1.383-1.383V347.215l-5.926-5.923a1.384,1.384,0,1,1,1.957-1.957l6.329,6.332a1.372,1.372,0,0,1,.406.977V358.25a1.383,1.383,0,0,1-1.383,1.383" transform="translate(40.746 44.931)" fill="#91b40d"/>
      <path id="Path_4360" data-name="Path 4360" d="M917.184,359.962a1.375,1.375,0,0,1-.977-.406l-7.387-7.384a1.384,1.384,0,0,1,1.957-1.957l7.384,7.387a1.383,1.383,0,0,1-.977,2.36" transform="translate(13.284 66.761)" fill="#91b40d"/>
      <path id="Path_4361" data-name="Path 4361" d="M921.379,359.962a1.383,1.383,0,0,1-.977-2.36l7.384-7.387a1.384,1.384,0,0,1,1.957,1.957l-7.387,7.384a1.375,1.375,0,0,1-.977.406" transform="translate(36.521 66.761)" fill="#91b40d"/>
      <path id="Path_4362" data-name="Path 4362" d="M990.808,351.3H964.44a5.074,5.074,0,0,1-4.519-7.384h-2.865a5.072,5.072,0,0,1-4.4-7.6,5.076,5.076,0,0,1,0-9.729,5.072,5.072,0,0,1,4.4-7.6h8.124a1.383,1.383,0,0,1,0,2.766h-8.124a2.311,2.311,0,0,0,0,4.621h17.971a1.383,1.383,0,1,1,0,2.766H954.1a2.309,2.309,0,0,0,0,4.618h20.926a1.383,1.383,0,1,1,0,2.766H957.056a2.309,2.309,0,0,0,0,4.618h20.927a1.385,1.385,0,0,1,0,2.769H964.44a2.309,2.309,0,1,0,0,4.618h26.368a19.359,19.359,0,0,0,8.629-2.039l7.983-3.99a2.876,2.876,0,0,1,1.281-.3h2.9a1.385,1.385,0,1,1,0,2.769h-2.9l-8.025,4a22.179,22.179,0,0,1-9.868,2.33" transform="translate(94.773 4.928)" fill="#91b40d"/>
      <path id="Path_4363" data-name="Path 4363" d="M980.264,336.313a1.367,1.367,0,0,1-.46-.081,12.757,12.757,0,0,1-8.166-9.54H962.4a6.667,6.667,0,0,1-6.66-6.66,3.5,3.5,0,0,1,3.494-3.494h19.652a8.763,8.763,0,0,1,4.648,1.332l9.684,6.055h9.134a1.383,1.383,0,0,1,0,2.766h-9.179a2.606,2.606,0,0,1-1.386-.4l-9.721-6.073a5.983,5.983,0,0,0-3.181-.914H959.233a.73.73,0,0,0-.728.728,3.9,3.9,0,0,0,3.894,3.894h10.478a1.386,1.386,0,0,1,1.386,1.383,9.827,9.827,0,0,0,6.461,8.316,1.383,1.383,0,0,1-.46,2.688" transform="translate(108.245 0)" fill="#91b40d"/>
      <path id="Path_4364" data-name="Path 4364" d="M983.117,350.92a16.175,16.175,0,0,1-16.095-14.772H950.408a1.383,1.383,0,0,1,0-2.766h17.938a1.383,1.383,0,0,1,1.383,1.383,13.389,13.389,0,1,0,26.777,0,1.383,1.383,0,0,1,1.383-1.383h17.935a1.383,1.383,0,1,1,0,2.766H999.212a16.175,16.175,0,0,1-16.095,14.772" transform="translate(94.773 33.8)" fill="#91b40d"/>
      <path id="Path_4365" data-name="Path 4365" d="M961.777,333.5a2.111,2.111,0,1,1-2.111-2.111,2.11,2.11,0,0,1,2.111,2.111" transform="translate(111.892 29.793)" fill="#91b40d"/>
      <path id="Path_4366" data-name="Path 4366" d="M963.883,336.655a2.111,2.111,0,1,1-2.111-2.111,2.109,2.109,0,0,1,2.111,2.111" transform="translate(116.118 36.132)" fill="#91b40d"/>
      <path id="Path_4367" data-name="Path 4367" d="M965.988,334.2a2.111,2.111,0,1,1-2.111-2.111,2.11,2.11,0,0,1,2.111,2.111" transform="translate(120.342 31.201)" fill="#91b40d"/>
      <path id="Path_4368" data-name="Path 4368" d="M1023.7,372.9l-3.881-.186-3.425.183-.063,0a7.308,7.308,0,0,1-5.174-2.12l-.884-.872a18.7,18.7,0,0,1-5.616-13.389v-1.681a8.839,8.839,0,0,1,2.405-6.467c2.58-2.76,6.939-4.161,12.953-4.161,6.1,0,10.5,1.422,13.061,4.224a8.685,8.685,0,0,1,2.3,6.452v1.633a18.7,18.7,0,0,1-5.616,13.389l-.884.872a7.307,7.307,0,0,1-5.174,2.12m-3.885-2.5h.057l3.882.189a4.987,4.987,0,0,0,3.494-1.452l.884-.872a16.4,16.4,0,0,0,4.925-11.741v-1.681c0-.033,0-.093.006-.126a6.384,6.384,0,0,0-1.7-4.711c-2.078-2.273-6-3.473-11.35-3.473s-9.134,1.152-11.263,3.428a6.5,6.5,0,0,0-1.783,4.772l.006.105v1.687a16.4,16.4,0,0,0,4.925,11.741l.884.872a5.022,5.022,0,0,0,3.518,1.452l3.452-.186.063,0" transform="translate(206.375 55.526)" fill="#91b40d"/>
      <path id="Path_4369" data-name="Path 4369" d="M1012.1,348.949a5.225,5.225,0,0,1-2.832-.749,1.159,1.159,0,1,1,1.151-2.011,2.935,2.935,0,0,0,1.681.445,3.212,3.212,0,0,0,1.681-.445,1.159,1.159,0,0,1,1.152,2.011,5.591,5.591,0,0,1-2.832.749" transform="translate(214.483 59.19)" fill="#91b40d"/>
      <path id="Path_4370" data-name="Path 4370" d="M1015.6,372.9l-3.882-.186-3.425.183-.063,0a7.308,7.308,0,0,1-5.174-2.12l-.884-.872a18.7,18.7,0,0,1-5.613-13.389v-1.648a8.859,8.859,0,0,1,2.4-6.5c2.583-2.763,6.942-4.164,12.959-4.164,4.507,0,8.112.788,10.713,2.339a1.158,1.158,0,0,1-1.185,1.99c-2.237-1.335-5.445-2.011-9.528-2.011-5.349,0-9.14,1.155-11.266,3.428a6.494,6.494,0,0,0-1.783,4.772l.006.1v1.69a16.4,16.4,0,0,0,4.925,11.741l.884.872a5.081,5.081,0,0,0,3.521,1.452l3.449-.186c.039,0,.081,0,.12,0l3.884.189a4.985,4.985,0,0,0,3.491-1.452l.884-.872a16.63,16.63,0,0,0,3.025-4.074,1.159,1.159,0,0,1,2.051,1.079,18.946,18.946,0,0,1-3.449,4.642l-.884.872a7.308,7.308,0,0,1-5.175,2.12" transform="translate(190.129 55.526)" fill="#91b40d"/>
      <path id="Path_4371" data-name="Path 4371" d="M1004,348.949a5.225,5.225,0,0,1-2.832-.749,1.159,1.159,0,0,1,1.151-2.011,2.941,2.941,0,0,0,1.681.445,3.214,3.214,0,0,0,1.681-.445,1.159,1.159,0,0,1,1.151,2.011,5.592,5.592,0,0,1-2.832.749" transform="translate(198.235 59.19)" fill="#91b40d"/>
      <path id="Path_4372" data-name="Path 4372" d="M1002.5,376.476a1.018,1.018,0,0,1-.135-.009,1.156,1.156,0,0,1-1.016-1.281c.114-1.019,3.028-25.13,17.974-42.713a1.158,1.158,0,0,1,1.765,1.5c-14.48,17.033-17.412,41.233-17.439,41.477a1.159,1.159,0,0,1-1.148,1.025" transform="translate(199.756 31.158)" fill="#91b40d"/>
      <path id="Path_4373" data-name="Path 4373" d="M1016.172,374.778a1.155,1.155,0,0,1-.953-.5c-.349-.505-8.557-12.694-8.557-40.319a1.158,1.158,0,1,1,2.315,0c0,26.91,8.064,38.885,8.148,39a1.157,1.157,0,0,1-.295,1.609,1.136,1.136,0,0,1-.659.2" transform="translate(210.43 32.636)" fill="#91b40d"/>
      <path id="Path_4374" data-name="Path 4374" d="M1034.375,357.026c-23.584,0-27.472-19.008-27.508-19.2a1.156,1.156,0,0,1,1.137-1.374c24.546,0,27.492,19.062,27.52,19.255a1.161,1.161,0,0,1-1.148,1.32m-24.859-18.232c1.281,4.035,6.377,15.289,23.419,15.89-1.071-3.975-5.671-15.28-23.419-15.89" transform="translate(210.799 39.958)" fill="#91b40d"/>
      <path id="Path_4375" data-name="Path 4375" d="M941.964,336.411a3.512,3.512,0,1,1-4.588-1.9,3.511,3.511,0,0,1,4.588,1.9" transform="translate(67.044 35.527)" fill="#91b40d"/>
      <path id="Path_4376" data-name="Path 4376" d="M1020.724,374.41a3.512,3.512,0,1,1,1.9-4.588,3.511,3.511,0,0,1-1.9,4.588" transform="translate(228.903 102.571)" fill="#91b40d"/>
      <path id="Path_4377" data-name="Path 4377" d="M989.213,339.1a3.512,3.512,0,1,1-1.9-4.588,3.511,3.511,0,0,1,1.9,4.588" transform="translate(161.859 35.527)" fill="#91b40d"/>
      <path id="Path_4378" data-name="Path 4378" d="M903.965,374.41a3.512,3.512,0,1,1,4.588-1.9,3.511,3.511,0,0,1-4.588,1.9" transform="translate(0 102.571)" fill="#91b40d"/>
    </g>
  </g>
</svg>
