<svg xmlns="http://www.w3.org/2000/svg" width="35.004" height="35.078" viewBox="0 0 35.004 35.078">
  <g id="Group_333" data-name="Group 333" transform="translate(0)">
    <g id="Group_151" data-name="Group 151" transform="translate(0 0)">
      <path id="Path_3877" data-name="Path 3877" d="M34.625,25.743l-4.9-4.9a3.256,3.256,0,0,0-5.42,1.224,3.331,3.331,0,0,1-3.846,2.1c-3.5-.874-8.217-5.42-9.091-9.091a3.169,3.169,0,0,1,2.1-3.846,3.256,3.256,0,0,0,1.224-5.42L9.8.918a3.492,3.492,0,0,0-4.72,0L1.758,4.24c-3.322,3.5.35,12.762,8.567,20.979S27.807,37.282,31.3,33.786l3.322-3.322A3.492,3.492,0,0,0,34.625,25.743Z" transform="translate(-0.539 0)" fill="#fff"/>
    </g>
  </g>
</svg>
