<svg xmlns="http://www.w3.org/2000/svg" width="35.523" height="35.645" viewBox="0 0 35.523 35.645">
  <g id="Group_450" data-name="Group 450" transform="translate(1744.868 -140.472)">
    <path id="Path_4422" data-name="Path 4422" d="M-1744.091,469.146a1.242,1.242,0,0,1-.775-1.327c.035-1.031.009-2.064.01-3.1a1.044,1.044,0,0,1,1.131-1.149,4.623,4.623,0,0,1,2.287.607,6.777,6.777,0,0,0,5.153.5,10.3,10.3,0,0,0,1.532-.644,4.565,4.565,0,0,1,4.149,0,7.633,7.633,0,0,0,3.8.919,7.112,7.112,0,0,0,3.017-.833,4.705,4.705,0,0,1,4.589.035,6.824,6.824,0,0,0,5.184.523,9.78,9.78,0,0,0,1.561-.661,4.4,4.4,0,0,1,2.081-.45,1.016,1.016,0,0,1,1.025,1.008c.009,1.183.006,2.365,0,3.548a1.118,1.118,0,0,1-.764,1.014Z" transform="translate(0 -293.03)" fill="#fff"/>
    <path id="Path_4423" data-name="Path 4423" d="M-1546.842,159.436l1.456-4q1.33-3.65,2.666-7.3a.561.561,0,0,0-.069-.572c-.466-.692-.91-1.4-1.375-2.092a1.2,1.2,0,0,1-.14-1.153c.375-1.02.741-2.044,1.117-3.063a1.064,1.064,0,0,1,1.5-.691q2.495.9,4.988,1.811a1.075,1.075,0,0,1,.709,1.547c-.354.979-.729,1.951-1.063,2.936a1.313,1.313,0,0,1-.958.909q-1.184.337-2.356.714a.575.575,0,0,0-.336.284q-2.069,5.634-4.114,11.277c-.011.031-.018.063-.032.113q1.65.6,3.293,1.2c.935.342,1.152.806.806,1.743-.489,1.323-.959,2.654-1.488,3.962a8.07,8.07,0,0,1-1.574,2.362.366.366,0,0,1-.5.091,13.7,13.7,0,0,0-2.016-.829,6.679,6.679,0,0,0-4.8.487c-.34.171-.7.308-1.041.474-.24.116-.369.051-.484-.189a9.037,9.037,0,0,1-.394-7.215c.4-1.122.814-2.239,1.225-3.356a1.072,1.072,0,0,1,1.515-.715C-1549.17,158.585-1548.031,159-1546.842,159.436Zm.008.021c-.449,1.242-.885,2.434-1.307,3.631a1,1,0,0,0-.042.475,1.011,1.011,0,0,0,.875.861,1.018,1.018,0,0,0,1.119-.687c.357-.951.7-1.908,1.046-2.863.082-.225.158-.451.248-.71Zm5.835-12.99c.646-.195,1.265-.379,1.881-.572a.358.358,0,0,0,.217-.15c.213-.556.41-1.118.619-1.7l-3.248-1.18c-.213.578-.417,1.115-.6,1.658a.387.387,0,0,0,.058.286C-1541.727,145.36-1541.369,145.9-1541,146.467Z" transform="translate(-173.464)" fill="#fff"/>
    <path id="Path_4424" data-name="Path 4424" d="M-1717.946,243.016a5.423,5.423,0,0,1,2.989-1.735,12.389,12.389,0,0,1,1.924-.243.953.953,0,0,1,.995.919,6.5,6.5,0,0,1-1.622,4.637,5.95,5.95,0,0,1-3.621,1.666c-.1.016-.207.023-.311.036s-.207.029-.354.05v1.445c0,.51,0,1.021,0,1.531,0,.093-.028.241-.087.268-.61.275-1.229.531-1.846.789a.65.65,0,0,1-.157.017v-4c-.7-.152-1.378-.251-2.026-.45a5.147,5.147,0,0,1-3.665-4.112,10.585,10.585,0,0,1-.212-1.754.985.985,0,0,1,1.05-1.045,6.525,6.525,0,0,1,4.859,1.967c0-.544-.032-1.026.008-1.5a2.358,2.358,0,0,0-.534-1.747,5.409,5.409,0,0,1-1.214-3.543,5.75,5.75,0,0,1,1.081-3.069,10.191,10.191,0,0,1,.929-1.169,1.013,1.013,0,0,1,1.54-.013,7.012,7.012,0,0,1,1.963,3.684,5.305,5.305,0,0,1-.832,3.644,3.346,3.346,0,0,1-.45.658,1.524,1.524,0,0,0-.41,1.262C-1717.92,241.777-1717.946,242.353-1717.946,243.016Z" transform="translate(-17.164 -82.663)" fill="#fff"/>
    <path id="Path_4425" data-name="Path 4425" d="M-1493.914,344.639l1.94.708c-.09.259-.167.485-.248.71-.347.955-.689,1.912-1.046,2.863a1.018,1.018,0,0,1-1.119.687,1.011,1.011,0,0,1-.875-.861,1,1,0,0,1,.042-.475C-1494.8,347.073-1494.363,345.881-1493.914,344.639Z" transform="translate(-226.384 -185.182)" fill="#fff"/>
  </g>
</svg>
