<svg xmlns="http://www.w3.org/2000/svg" width="59.97" height="60.175" viewBox="0 0 59.97 60.175">
  <g id="Group_449" data-name="Group 449" transform="translate(1744.868 -140.472)">
    <path id="Path_4422" data-name="Path 4422" d="M-1743.557,473a2.1,2.1,0,0,1-1.308-2.241c.059-1.74.015-3.484.016-5.226a1.762,1.762,0,0,1,1.91-1.94,7.8,7.8,0,0,1,3.861,1.025,11.44,11.44,0,0,0,8.7.852,17.382,17.382,0,0,0,2.586-1.087,7.706,7.706,0,0,1,7.005,0,12.886,12.886,0,0,0,6.411,1.551,12.007,12.007,0,0,0,5.093-1.407,7.943,7.943,0,0,1,7.747.059,11.52,11.52,0,0,0,8.751.883,16.508,16.508,0,0,0,2.636-1.115,7.423,7.423,0,0,1,3.513-.759,1.715,1.715,0,0,1,1.73,1.7c.015,2,.01,3.993,0,5.989a1.886,1.886,0,0,1-1.289,1.712Z" transform="translate(0 -272.356)" fill="#91b40d"/>
    <path id="Path_4423" data-name="Path 4423" d="M-1542.178,172.487l2.458-6.751q2.245-6.162,4.5-12.32a.948.948,0,0,0-.116-.966c-.787-1.168-1.536-2.362-2.321-3.531a2.02,2.02,0,0,1-.237-1.947c.634-1.722,1.252-3.45,1.886-5.171a1.8,1.8,0,0,1,2.529-1.166q4.212,1.523,8.42,3.058a1.815,1.815,0,0,1,1.2,2.611c-.6,1.652-1.23,3.293-1.794,4.957a2.217,2.217,0,0,1-1.617,1.534q-2,.569-3.977,1.2a.97.97,0,0,0-.567.48q-3.493,9.512-6.945,19.038c-.019.052-.03.106-.054.19q2.786,1.016,5.558,2.028c1.578.578,1.945,1.361,1.36,2.942-.826,2.234-1.618,4.481-2.512,6.688a13.627,13.627,0,0,1-2.657,3.987.618.618,0,0,1-.849.154,23.117,23.117,0,0,0-3.4-1.4,11.276,11.276,0,0,0-8.1.822c-.575.289-1.178.521-1.758.8-.405.2-.622.086-.817-.318a15.257,15.257,0,0,1-.665-12.181c.673-1.894,1.374-3.779,2.068-5.666a1.809,1.809,0,0,1,2.557-1.208C-1546.107,171.05-1544.184,171.756-1542.178,172.487Zm.014.035c-.758,2.1-1.493,4.109-2.207,6.13a1.692,1.692,0,0,0-.071.8,1.707,1.707,0,0,0,1.477,1.454,1.719,1.719,0,0,0,1.89-1.159c.6-1.606,1.18-3.221,1.765-4.833.138-.379.267-.762.419-1.2Zm9.851-21.93c1.09-.329,2.135-.64,3.176-.965a.6.6,0,0,0,.367-.252c.36-.938.692-1.887,1.045-2.865l-5.484-1.991c-.359.976-.7,1.882-1.016,2.8a.654.654,0,0,0,.1.484C-1533.543,148.723-1532.939,149.634-1532.313,150.592Z" transform="translate(-161.226)" fill="#91b40d"/>
    <path id="Path_4424" data-name="Path 4424" d="M-1712.441,250.867a9.155,9.155,0,0,1,5.046-2.93,20.917,20.917,0,0,1,3.247-.409,1.608,1.608,0,0,1,1.68,1.551,10.964,10.964,0,0,1-2.737,7.828,10.046,10.046,0,0,1-6.114,2.813c-.174.026-.35.039-.524.061s-.349.049-.6.085v2.44c0,.862.007,1.723-.007,2.585,0,.156-.048.407-.147.452-1.03.464-2.074.9-3.116,1.332a1.1,1.1,0,0,1-.266.028v-6.759c-1.181-.257-2.327-.424-3.421-.76a8.688,8.688,0,0,1-6.187-6.942,17.859,17.859,0,0,1-.357-2.961,1.663,1.663,0,0,1,1.773-1.764,11.016,11.016,0,0,1,8.2,3.32c0-.919-.054-1.732.013-2.534a3.981,3.981,0,0,0-.9-2.949,9.133,9.133,0,0,1-2.05-5.981,9.708,9.708,0,0,1,1.825-5.181,17.218,17.218,0,0,1,1.568-1.973,1.71,1.71,0,0,1,2.6-.022,11.838,11.838,0,0,1,3.314,6.219,8.958,8.958,0,0,1-1.405,6.152,5.653,5.653,0,0,1-.76,1.112,2.571,2.571,0,0,0-.692,2.13C-1712.4,248.775-1712.441,249.747-1712.441,250.867Z" transform="translate(-15.953 -76.831)" fill="#91b40d"/>
    <path id="Path_4425" data-name="Path 4425" d="M-1492.978,344.639l3.274,1.2c-.153.437-.281.819-.419,1.2-.586,1.612-1.163,3.227-1.765,4.833a1.719,1.719,0,0,1-1.89,1.159,1.707,1.707,0,0,1-1.477-1.454,1.692,1.692,0,0,1,.07-.8C-1494.471,348.748-1493.736,346.736-1492.978,344.639Z" transform="translate(-210.411 -172.117)" fill="#91b40d"/>
  </g>
</svg>
