<svg xmlns="http://www.w3.org/2000/svg" width="47.245" height="45.071" viewBox="0 0 47.245 45.071">
  <path id="Path_24" data-name="Path 24" d="M-506.12,87.015a13.332,13.332,0,0,1,4.97-3.931A10.341,10.341,0,0,1-493.9,82.7a30.847,30.847,0,0,1,6.257,2.55,30.775,30.775,0,0,0,3.093,1.519,13.8,13.8,0,0,0,2.274.493c.526-6.544.434-12.88-2.438-18.781a31.018,31.018,0,0,1-3.2.235c-3.489-.1-5.594-2.082-6.561-5.161a16.661,16.661,0,0,1-.579-5.707.729.729,0,0,1,.733-.792,17.222,17.222,0,0,1,8.236,1.393c2.993,1.473,4.012,3.808,3.179,7.06-.14.548-.385,1.068-.549,1.61a.786.786,0,0,0,.022.543A26.482,26.482,0,0,1-480.641,78a2.547,2.547,0,0,0,.151.744c.156-.339.324-.673.458-1.02.035-.091-.029-.227-.064-.337a8.142,8.142,0,0,1,.1-6.071,6.278,6.278,0,0,1,4.24-3.413,15.063,15.063,0,0,1,5.161-.479c.5.028.809.276.815.761a15.61,15.61,0,0,1-1.415,7.624,5.151,5.151,0,0,1-6.715,2.681c-.2-.067-.405-.129-.643-.205A23.1,23.1,0,0,0-480.7,87.2h.509c1.738,0,3.477.015,5.215,0a3.638,3.638,0,0,1,3.224,1.541.561.561,0,0,0,.122.091q2.845-3.279,5.686-6.553a10.091,10.091,0,0,1,2.426-2.309,7.149,7.149,0,0,1,3.655-.958c.877,0,1.2.491.844,1.3-1.809,4.12-3.63,8.235-5.429,12.359A10.275,10.275,0,0,1-469,97.755a6.574,6.574,0,0,1-1.426.636,64.74,64.74,0,0,0-7.077,2.622,14.284,14.284,0,0,1-4.317,1.073A12.719,12.719,0,0,1-487.785,101c-2.8-1.212-5.6-2.443-8.435-3.59a25.745,25.745,0,0,0-7.074-1.623c-.658-.068-1.315-.138-1.974-.191a1.1,1.1,0,0,1-.853-.545Zm1.572,7.087,1.151.117a28.279,28.279,0,0,1,7.838,1.788c2.845,1.158,5.656,2.4,8.477,3.612a10.938,10.938,0,0,0,5.761.88,16.974,16.974,0,0,0,4.041-1.233c1.746-.675,3.465-1.454,5.259-1.961a8.952,8.952,0,0,0,6.137-5.2q2.422-5.5,4.839-11.01c.059-.134.112-.271.173-.422a4.75,4.75,0,0,0-3.049,1.609Q-467,85.842-470.083,89.4a4.492,4.492,0,0,0-1.225,2.18,3.337,3.337,0,0,1-3.539,2.627c-3.231.006-6.462-.018-9.693.014a23.986,23.986,0,0,0-2.793.269,13.455,13.455,0,0,0-1.372.32l-.512-1.429a9.727,9.727,0,0,1,1.341-.356,37.968,37.968,0,0,1,3.8-.352c3.092-.05,6.185-.022,9.277-.013a1.981,1.981,0,0,0,1.8-.913,1.839,1.839,0,0,0,.088-1.931,1.838,1.838,0,0,0-1.711-1.058c-2.339-.01-4.677,0-7.016-.012a15.374,15.374,0,0,1-1.838-.127,11.006,11.006,0,0,1-4.269-1.64,25.755,25.755,0,0,0-6.152-2.675,10.046,10.046,0,0,0-4.182-.484,10.437,10.437,0,0,0-6.3,3.536.919.919,0,0,0-.19.575c-.014,1.908-.009,3.816-.007,5.723C-504.57,93.793-504.557,93.928-504.548,94.1Zm19.908-28.3c1.008-2.572.44-4.7-1.973-5.9a13.256,13.256,0,0,0-4.746-1.222c-.713-.068-1.43-.085-2.19-.127a14.566,14.566,0,0,0,.534,4.532,5.21,5.21,0,0,0,4.45,4.053,7.363,7.363,0,0,0,2.889-.155c-.254-.319-.465-.6-.694-.865a10.34,10.34,0,0,0-3.507-2.644.766.766,0,0,1-.449-1.091.787.787,0,0,1,1.116-.287c.333.155.662.325.982.507A12.218,12.218,0,0,1-484.64,65.8Zm13.339,3.091c-.835.047-1.589.055-2.334.143a10.777,10.777,0,0,0-1.8.373c-3.016.9-4.073,3.455-3.474,6.267.293-.406.56-.8.848-1.172a11.881,11.881,0,0,1,2.836-2.749c.509-.335.941-.3,1.213.1.255.376.112.78-.314,1.148a22.715,22.715,0,0,0-1.991,1.844c-.56.613-1.008,1.329-1.521,2.021,2.271.888,4.063.385,5.1-1.444A13.529,13.529,0,0,0-471.3,68.889Z" transform="translate(506.12 -57.043)" fill="#91b40d"/>
</svg>
