<svg xmlns="http://www.w3.org/2000/svg" width="52.978" height="45.1" viewBox="0 0 52.978 45.1">
  <path id="Path_34" data-name="Path 34" d="M-1828.643,1325.1c-.087.4-.171.8-.262,1.2a20.758,20.758,0,0,1-4.033,7.844,65.631,65.631,0,0,1-10.311,10.351,124.9,124.9,0,0,1-11.078,8.231,1.234,1.234,0,0,1-1.524.063,108.066,108.066,0,0,1-18.218-14.826,35,35,0,0,1-6.105-8.3,13.366,13.366,0,0,1-.682-10.539,15.757,15.757,0,0,1,7.242-9.085,15.077,15.077,0,0,1,9.9-1.953,15.239,15.239,0,0,1,8.216,3.816c.1.091.211.176.343.285.551-.437,1.085-.893,1.652-1.3a14.9,14.9,0,0,1,10.838-2.838,15.391,15.391,0,0,1,11.555,7.41,15.78,15.78,0,0,1,2.391,7.185,3.7,3.7,0,0,0,.077.4Zm-37.038-15.112-.028-.144a34.55,34.55,0,0,0-3.993.748,13.459,13.459,0,0,0-8.844,8.215,11.91,11.91,0,0,0,1.02,11.405,40.521,40.521,0,0,0,5.228,6.59,105.9,105.9,0,0,0,16.826,13.757.508.508,0,0,0,.677-.007,106.043,106.043,0,0,0,16.789-13.721,35.286,35.286,0,0,0,5.381-6.859,11.716,11.716,0,0,0,1.9-5.777,13.863,13.863,0,0,0-4.044-10.1,13.389,13.389,0,0,0-19.124-.187c-1.109,1.085-1.379,1.085-2.495-.008A13.4,13.4,0,0,0-1865.681,1309.992Z" transform="translate(1881.621 -1307.924)" fill="#91b40d"/>
</svg>
