<svg xmlns="http://www.w3.org/2000/svg" width="87.09" height="83.628" viewBox="0 0 87.09 83.628">
  <path id="Path_4413" data-name="Path 4413" d="M-1195.794,1248.11a4.659,4.659,0,0,1-3.257,3.261,5.028,5.028,0,0,1-1.172.134q-39.107.009-78.213,0a4.32,4.32,0,0,1-4.414-4.045,4.319,4.319,0,0,1,4.139-4.659c.392-.027.786-.036,1.307-.06,0-1.259,0-2.492,0-3.725a3.412,3.412,0,0,1,.035-.846,1.221,1.221,0,0,1,1.29-1.012,1.147,1.147,0,0,1,1.223,1.157c.041,1.019.021,2.04.027,3.06,0,.422,0,.844,0,1.348.331.021.6.052.877.052,2.749,0,5.5.02,8.246-.016a2.774,2.774,0,0,0,1.339-.393,45.2,45.2,0,0,1,17.463-6.16c2.04-.282,4.1-.448,6.226-.677a9.7,9.7,0,0,0-1.871-5.036,2.348,2.348,0,0,0-2.424-1.034c-6.2.483-12.041-.557-16.968-4.681a14.675,14.675,0,0,1-5.511-9.085c-.26-1.66.278-2.55,1.9-2.965a18.852,18.852,0,0,1,10.534.616c6.707,2.13,10.877,6.738,12.948,13.388a8.557,8.557,0,0,0,1.153,1.851l.292-.092v-1.559c0-1.927.018-3.854-.017-5.781a1.4,1.4,0,0,0-.38-.945c-5.71-4.916-7.178-11.066-5.331-18.186a31.922,31.922,0,0,1,5.3-10.737,2.014,2.014,0,0,1,3.479-.01,30.146,30.146,0,0,1,5.826,13.223,16.175,16.175,0,0,1-5.67,15.521,1.419,1.419,0,0,0-.589,1.208c.031,2.458.013,4.917.013,7.375l.267.125a11.751,11.751,0,0,0,1.178-2.09c2.585-8.009,7.973-12.735,16.3-14.078a18.805,18.805,0,0,1,6.586.018c2.123.407,2.808,1.354,2.417,3.469-.714,3.857-2.975,6.736-5.962,9.09a21.594,21.594,0,0,1-12.86,4.408,40.254,40.254,0,0,1-4.156-.14,1.383,1.383,0,0,0-1.314.541,10.872,10.872,0,0,0-2.369,5.629c1.678.154,3.31.266,4.932.458a46.373,46.373,0,0,1,18.429,6.168,4.228,4.228,0,0,0,1.969.554c2.577.063,5.157.025,7.736.025h.966c.019-.378.045-.652.045-.927q0-19.851.015-39.7a1.343,1.343,0,0,0-.7-1.3q-16.963-10.9-33.9-21.856a1.431,1.431,0,0,0-1.822-.018q-16.89,10.936-33.822,21.806a1.538,1.538,0,0,0-.8,1.5q.036,14.538.016,29.075c0,.227,0,.453,0,.68-.013,1.134-.47,1.715-1.322,1.686-.8-.027-1.252-.625-1.252-1.687q0-12.667,0-25.334v-4.122c-.247-.013-.435-.032-.623-.031a4.583,4.583,0,0,1-4.638-3.369,4.538,4.538,0,0,1,2.065-5.355q9.732-6.294,19.48-12.565c6.518-4.2,13.048-8.388,19.546-12.62a3.721,3.721,0,0,1,4.484-.016q12.608,8.174,25.253,16.292c1.166.752,1.464,1.4,1,2.157-.482.776-1.23.777-2.425.007q-12.562-8.1-25.115-16.207a1.43,1.43,0,0,0-1.819-.046q-19.352,12.521-38.737,24.991c-.776.5-1.431,1.077-1.349,2.085a2.23,2.23,0,0,0,1.272,1.885,2.106,2.106,0,0,0,2.23-.3q7.846-5.067,15.7-10.122c6.495-4.186,13-8.354,19.475-12.573a3.781,3.781,0,0,1,4.56-.009q17.355,11.234,34.742,22.416a9.975,9.975,0,0,0,.868.53,1.982,1.982,0,0,0,2.716-.765,1.983,1.983,0,0,0-.492-2.792c-.965-.693-1.984-1.309-2.983-1.954-1.712-1.105-3.43-2.2-5.14-3.311-.889-.576-1.12-1.29-.662-1.978.447-.672,1.2-.746,2.082-.18,2.6,1.663,5.179,3.352,7.79,4.994a5.769,5.769,0,0,1,2.331,3.014v2.04c-.109.252-.224.5-.327.756a4.487,4.487,0,0,1-3.208,2.884,12.022,12.022,0,0,1-1.847.159v40.059a17.324,17.324,0,0,1,2.562.423,4.567,4.567,0,0,1,2.82,3.158Zm-43.492-2.733h-38.422c-.312,0-.625-.015-.935.012a1.82,1.82,0,0,0-1.636,1.583,1.743,1.743,0,0,0,1.2,1.837,4.265,4.265,0,0,0,1.251.146q38.507.01,77.013.005c1.575,0,2.478-.673,2.458-1.828-.02-1.125-.888-1.756-2.424-1.756Zm19.93-2.626a43.926,43.926,0,0,0-19.978-4.523c-6.874.009-18.2,2.575-19.931,4.523Zm-12.692-15.8c8.895.427,16.36-4.284,17.878-10.414A97.678,97.678,0,0,0-1232.047,1226.951Zm-5.862-31.431v21.293l.266.115a42.8,42.8,0,0,0,2.365-3.881,13.619,13.619,0,0,0,.909-8.458A27.016,27.016,0,0,0-1237.909,1195.52Zm-2.764.238a22.488,22.488,0,0,0-3.013,6.416,15.641,15.641,0,0,0,.119,10.387,12.253,12.253,0,0,0,2.895,4.367Zm-23.809,20.871c.982,5.766,11.311,11.772,17.515,10.245A142.238,142.238,0,0,0-1264.482,1216.629Zm18.6,7.6c-2.453-5.593-11.14-10.663-15.71-9.236Zm13.294-.235c2.469-1.564,4.949-3.227,7.52-4.736s5.2-2.844,7.877-4.292C-1223.047,1214.723-1230.094,1218.2-1232.585,1223.992Z" transform="translate(1282.885 -1167.882)" fill="#91b40d"/>
</svg>
