<svg xmlns="http://www.w3.org/2000/svg" width="83.279" height="83.265" viewBox="0 0 83.279 83.265">
  <path id="Path_4414" data-name="Path 4414" d="M-121.988,620.519c-1.1-.023-2.21-.018-3.38-.012l-1.175,0c.129-.137.236-.249.345-.359l2.585-2.584q2.282-2.28,4.56-4.563a4.43,4.43,0,0,0,0-6.721c-1.132-1.144-2.352-2.372-3.6-3.6a4.4,4.4,0,0,0-6.6.013q-2.575,2.571-5.148,5.143c-4.01,4.008-8.157,8.153-12.249,12.216a1.627,1.627,0,0,1-1.02.436c-9.8.022-19.755.022-29.387.022h-5.338v-4.766q0-4.96,0-9.919a4.6,4.6,0,0,0-1.294-3.384,4.483,4.483,0,0,0-3.335-1.19c-.347.008-.7.012-1.046.015a17.447,17.447,0,0,0-4.525.438c-4.4,1.239-7.1,4.227-8.029,8.88a.9.9,0,0,1-.079.2c-.02.041-.04.083-.058.124l-.017.04v63.6l.008.058c.058.209.112.421.165.631a13.572,13.572,0,0,0,.4,1.383,11.468,11.468,0,0,0,8.954,7.684.728.728,0,0,1,.177.079c.04.022.08.044.121.063l.044.02h69.963l.037-.014a4.587,4.587,0,0,0,3.257-3.329,4.9,4.9,0,0,0,.112-1.085q.007-27.525,0-55.05A4.371,4.371,0,0,0-121.988,620.519Zm-6.639-13.958q.218-.212.439-.429c.465-.457.946-.93,1.447-1.371a1.071,1.071,0,0,1,1.593.037c1.372,1.327,2.733,2.686,4.046,4.04a1.069,1.069,0,0,1,.03,1.594c-.441.5-.916.98-1.375,1.444q-.22.222-.436.442Zm-60.381,74.7a8.207,8.207,0,0,1-8.539-7.676,7.786,7.786,0,0,1,6.256-8.184,15.049,15.049,0,0,1,2.96-.2h.181c.382,0,.777,0,1.165-.009a4.456,4.456,0,0,0,4.487-3.509,5.649,5.649,0,0,0,.089-1.234v-.1q.005-15.509,0-31.018v-5.511H-150.4q-.229.235-.448.463c-.542.563-1.054,1.095-1.605,1.567a7.058,7.058,0,0,0-2.413,5.276c-.057,1.059-.171,2.108-.291,3.22-.048.442-.1.891-.142,1.35h-22.468l-.212,0a4.545,4.545,0,0,0-.621.017,1.616,1.616,0,0,0-1.489,1.61,1.518,1.518,0,0,0,1.4,1.584,11.918,11.918,0,0,0,1.444.054c.172,0,.344,0,.515,0,.371,0,.741.006,1.112.007.3,0,.607,0,.91,0a.692.692,0,0,1,.118.024V675.33c0,.072,0,.143,0,.215a4.2,4.2,0,0,0,.019.621,1.586,1.586,0,0,0,1.593,1.4h.012a1.555,1.555,0,0,0,1.565-1.426,7.05,7.05,0,0,0,.027-.784v-.128q0-7.354,0-14.707v-3.565h14.682v10.456l-.059,0c-.188.011-.382.022-.571.022h-2.674c-1.859,0-3.717,0-5.576.008h-.109a1.732,1.732,0,0,0-1.117.236,2.043,2.043,0,0,0-.8,1.378,2.288,2.288,0,0,0,.85,1.411,1.668,1.668,0,0,0,1.092.226h.133c8.888.008,17.658.007,26.608.006,2.238,0,3.422-1.167,3.423-3.372q.005-9.946,0-19.891v-.074a3.089,3.089,0,0,0-.1-.949,1.576,1.576,0,0,0-1.822-1,1.549,1.549,0,0,0-1.267,1.6v6.557h-32.645V638.962h.774q2.579,0,5.159.009c4.274.011,8.694.022,13.041-.037a52.981,52.981,0,0,0,5.994-.541l.616-.079a5.414,5.414,0,0,0,3.171-1.766c4.953-4.982,8.746-8.771,12.3-12.286a1.766,1.766,0,0,1,1.1-.45c1.9-.04,3.843-.033,5.719-.025l1.231,0c1.109,0,1.483.383,1.484,1.506q.005,27.208,0,54.416c0,1.137-.421,1.559-1.551,1.56l-12.8,0C-152.761,681.277-171.035,681.281-189.009,681.265Zm3.384-75.7a4.153,4.153,0,0,1,.019.583c0,.066,0,.131,0,.2q0,26.843,0,53.686v.17c0,.128,0,.256,0,.384-.048.917-.431,1.289-1.367,1.325-.431.016-.864.024-1.3.032a25.85,25.85,0,0,0-3.318.2,10.671,10.671,0,0,0-6.009,3.186V651.071q0-19.109,0-38.218a7.948,7.948,0,0,1,6.338-8.177,14.394,14.394,0,0,1,2.914-.229c.265,0,.53,0,.792.005s.534,0,.8,0h.035A1.128,1.128,0,0,1-185.625,605.567Zm32.241,61.805v-10.4h14.656v10.4Zm5.534-32.031c-1.162.128-2.363.261-3.543.326a.532.532,0,0,1-.437-.14A1.069,1.069,0,0,1-152,634.7c.117-1.073.241-2.145.366-3.228l.1-.9,4.674,4.664Q-147.353,635.285-147.851,635.341Zm3.927-2.173-5.516-5.554,14.489-14.486,5.565,5.53Zm11.477-22.637,1.427-1.444,5.645,5.613-1.539,1.48Z" transform="translate(200.791 -601.199)" fill="#91b40d"/>
</svg>
