<svg xmlns="http://www.w3.org/2000/svg" width="51.479" height="45.012" viewBox="0 0 51.479 45.012">
  <path id="Path_29" data-name="Path 29" d="M-969.494,791.5c-.168,1.19-.294,2.388-.512,3.569a19.746,19.746,0,0,1-3.858,9,13.664,13.664,0,0,1-11.339,5.242,20.792,20.792,0,0,1-7.76-1.666.7.7,0,0,0-.882.14c-.555.532-1.365.927-1.66,1.567a5.884,5.884,0,0,0-.1,2.278c-.006,1.677,0,3.353-.007,5.029,0,.322.071.465.429.512a14.687,14.687,0,0,1,5.6,2.114,41.106,41.106,0,0,1,8.362,6.879,1.969,1.969,0,0,1,.52,2.21,1.938,1.938,0,0,1-1.754,1.3c-.167.014-.334.029-.5.029l-26.807,0a2.273,2.273,0,0,1-1.969-.793,1.969,1.969,0,0,1,.191-2.7c1.418-1.378,2.882-2.708,4.341-4.042a.74.74,0,0,1,1.153-.007.793.793,0,0,1-.175,1.151q-2.026,1.882-4.054,3.76c-.222.206-.526.454-.315.754a1.028,1.028,0,0,0,.747.339q13.479.025,26.957,0a.927.927,0,0,0,.731-.337c.075-.18-.115-.558-.3-.744a39.737,39.737,0,0,0-7.854-6.473,13.747,13.747,0,0,0-4.922-1.94,9.113,9.113,0,0,0-5.4,1c-.771.363-1.5.808-2.251,1.219-.161.089-.31.2-.475.28a.742.742,0,0,1-1.013-.246.714.714,0,0,1,.227-1.016,16.159,16.159,0,0,1,6.572-2.74c.383-.051.456-.19.455-.535-.009-4.476,0-8.952-.018-13.428a1.015,1.015,0,0,0-.29-.632c-.364-.369-.8-.664-1.163-1.035a.753.753,0,0,0-.964-.163,18.473,18.473,0,0,1-7.586,1.48,12.733,12.733,0,0,1-11.531-7.446,22.383,22.383,0,0,1-2.308-9.743,1.27,1.27,0,0,1,.428-.872c.282-.24.61-.029.9.183a11.248,11.248,0,0,0,4.552,1.772c2.611.507,5.25.866,7.871,1.325a10.279,10.279,0,0,1,7.061,4.278,11.439,11.439,0,0,1,1.887,5.03c.075.547.117,1.1.154,1.65.068,1.029.061,1.029,1,1.742v-.629q0-5.155,0-10.31c0-.824.231-1.176.764-1.175s.75.339.75,1.181q0,8.374,0,16.748v.713c.454-.387.828-.665,1.144-1a.9.9,0,0,0,.107-.56,14.329,14.329,0,0,1,1.093-5.734,10.752,10.752,0,0,1,8.181-6.578c1.833-.378,3.714-.521,5.563-.83a30.273,30.273,0,0,0,7.312-1.922,7.71,7.71,0,0,0,1.263-.716c.662-.458.9-.455,1.448.125Zm-1.808,1.819a19.956,19.956,0,0,1-6.926,5.618,16.008,16.008,0,0,0,1.853.185c.6.034.938.295.94.748,0,.477-.38.817-.982.753-1.329-.142-2.651-.341-3.977-.5a1.114,1.114,0,0,0-.571.035c-1.867.865-3.732,1.734-5.583,2.633-.635.308-1.228.7-1.84,1.058l.026.168c.913.19,1.819.423,2.74.554a16.006,16.006,0,0,0,1.951.054.749.749,0,0,1,.828.7.711.711,0,0,1-.676.786,8.359,8.359,0,0,1-1.253.072,14.583,14.583,0,0,1-4.872-1.1.738.738,0,0,0-.547-.046c-.627.405-1.225.858-1.863,1.316a1.7,1.7,0,0,0,.218.13,18.857,18.857,0,0,0,8.072,1.283,11.835,11.835,0,0,0,7.48-3.279,15.37,15.37,0,0,0,3.79-6.023A21.3,21.3,0,0,0-971.3,793.316Zm-1.426-.772c-.694.211-1.281.4-1.874.568a70.661,70.661,0,0,1-9.14,1.607,10.575,10.575,0,0,0-5.693,2.417,10.452,10.452,0,0,0-3.295,6.749c-.048.347-.067.7-.107,1.127.193-.128.293-.188.386-.257a43.412,43.412,0,0,1,6.229-3.851.861.861,0,0,0,.478-.672c.285-1.147.618-2.284.987-3.407a.73.73,0,0,1,1.015-.47.77.77,0,0,1,.358,1.06c-.072.187-.179.362-.241.552-.2.608-.38,1.221-.608,1.96C-979.959,798-975.6,796.524-972.727,792.543Zm-31.047,5.285a1.077,1.077,0,0,0-.157-.136c-2.172-1.077-4.343-2.157-6.522-3.22a.942.942,0,0,0-.531-.023c-.593.1-1.178.267-1.774.329a17.423,17.423,0,0,1-2.406.1,1.05,1.05,0,0,1-.71-.505.785.785,0,0,1,.144-.713,1.159,1.159,0,0,1,.715-.257c.614-.054,1.233-.058,1.849-.081l.018-.127a16.785,16.785,0,0,1-6.033-4.884,3.43,3.43,0,0,0,0,.421,18.57,18.57,0,0,0,2.878,7.694,10.966,10.966,0,0,0,5.88,4.4,13.009,13.009,0,0,0,6.313.274c1.235-.232,2.445-.6,3.666-.9l-.005-.168c-.46-.329-.93-.643-1.374-.992a.653.653,0,0,0-.683-.075,33.532,33.532,0,0,1-3.382.91,10.29,10.29,0,0,1-2.352.025.723.723,0,0,1-.682-.79.749.749,0,0,1,.787-.684c.2,0,.4.022.6.029A9.833,9.833,0,0,0-1003.774,797.828Zm-13.986-10.211c2.559,3.441,6.415,4.772,10.162,6.363a19.61,19.61,0,0,0-.8-2.243c-.233-.551-.167-.971.244-1.182s.82-.046,1.1.476a9.111,9.111,0,0,1,1.047,3.383.777.777,0,0,0,.443.65c1.82,1.1,3.624,2.218,5.433,3.332.135.083.268.17.544.346-.148-.865-.226-1.6-.4-2.3a8.589,8.589,0,0,0-4.146-5.725,12.842,12.842,0,0,0-4.544-1.341c-2.086-.307-4.169-.641-6.242-1.02C-1015.872,788.182-1016.8,787.872-1017.76,787.617Z" transform="translate(1020.973 -784.685)" fill="#91b40d"/>
</svg>
