<svg xmlns="http://www.w3.org/2000/svg" width="43.379" height="45.1" viewBox="0 0 43.379 45.1">
  <g id="Group_4" data-name="Group 4" transform="translate(1007.149 -178.429)">
    <path id="Path_26" data-name="Path 26" d="M-958.211,204.633q5.195,0,10.389,0a2.4,2.4,0,0,1,2.777,1.966,17.076,17.076,0,0,0,7.123,9.146,2.586,2.586,0,0,1,1.36,3.058c-.318,1.338-.537,2.7-.852,4.04a1.466,1.466,0,0,1-1.727,1.283,1.47,1.47,0,0,1-1.083-1.933q.3-1.555.683-3.095a1.024,1.024,0,0,0-.476-1.28,19.771,19.771,0,0,1-7.508-9.617.923.923,0,0,0-1.05-.691q-9.668.092-19.336.134a.856.856,0,0,0-.961.671,19.762,19.762,0,0,1-7.384,9.712,1.027,1.027,0,0,0-.471,1.283c.27,1.021.49,2.055.71,3.088a1.469,1.469,0,0,1-.95,1.921,1.442,1.442,0,0,1-1.8-1.161c-.4-1.583-.756-3.177-1.045-4.783a1.97,1.97,0,0,1,.971-2.058,17.841,17.841,0,0,0,7.634-10.031,2.145,2.145,0,0,1,2.313-1.511c3.56-.01,7.119,0,10.679,0Z" transform="translate(-27.307 -26.204)" fill="#91b40d"/>
    <path id="Path_27" data-name="Path 27" d="M-944.512,345.231a8.651,8.651,0,0,1-1.245-.445,38.941,38.941,0,0,1-17.314-19.433,1.436,1.436,0,0,1,.717-2.085c.789-.315,1.536.05,1.965,1.038a36.076,36.076,0,0,0,9.234,13.091c1.824,1.593,3.906,2.89,5.857,4.341a1.14,1.14,0,0,0,1.468-.02,36.335,36.335,0,0,0,14.473-16.761c.143-.322.268-.652.423-.968a1.429,1.429,0,0,1,1.952-.861,1.429,1.429,0,0,1,.686,2.02,42.662,42.662,0,0,1-4.9,8.8,37.6,37.6,0,0,1-11.865,10.644A14.882,14.882,0,0,1-944.512,345.231Z" transform="translate(-40.693 -121.701)" fill="#91b40d"/>
    <path id="Path_28" data-name="Path 28" d="M-903.329,278.039c2.457-3.708,4.84-7.3,7.224-10.9a4.346,4.346,0,0,1,.492-.679,1.157,1.157,0,0,1,1.6-.182,1.148,1.148,0,0,1,.441,1.544,4.85,4.85,0,0,1-.383.65q-3.9,5.887-7.8,11.77c-.844,1.272-1.508,1.343-2.627.284q-2.322-2.2-4.637-4.4c-.743-.71-.838-1.484-.275-2.045s1.249-.5,1.994.2C-906,275.51-904.7,276.742-903.329,278.039Z" transform="translate(-82.92 -74.415)" fill="#91b40d"/>
  </g>
</svg>
