<svg xmlns="http://www.w3.org/2000/svg" width="123.381" height="83.77" viewBox="0 0 123.381 83.77">
  <g id="Group_436" data-name="Group 436" transform="translate(416.116 65.812)">
    <path id="Path_4379" data-name="Path 4379" d="M-416.116,52.558c.887-1.844,2.347-2.479,4.379-2.434,4.576.1,9.155.032,13.733.032h1.291c.547-2.637,1.506-3.407,4.625-3.74a2.437,2.437,0,0,0,.116-.533c.009-3.775.023-7.55-.016-11.324a1.39,1.39,0,0,0-.571-1.006,2.486,2.486,0,0,1-1.264-2.3c-.008-1.526-.006-3.052-.005-4.578,0-2.722.441-3.217,3.268-3.538V15.858c0-3.333.331-3.735,3.635-4.348V8.791c-.4-.025-.788-.045-1.172-.073A1.732,1.732,0,0,1-389.79,7a1.762,1.762,0,0,1,1.657-1.877q3.129-.093,6.263,0a1.722,1.722,0,0,1,1.637,1.879,1.7,1.7,0,0,1-1.679,1.71c-.353.033-.709.04-1.141.063v2.812c.291.025.561.047.831.072a2.658,2.658,0,0,1,2.74,2.973c.012,2.807,0,5.613,0,8.489.454.054.841.085,1.221.149a2.246,2.246,0,0,1,2.084,2.264,52.068,52.068,0,0,1-.041,5.9c-.061.716-.759,1.386-1.2,2.058-.176.271-.615.491-.617.737-.039,4.045-.028,8.091-.028,12.232,2.594-.1,4.278.9,4.737,3.691h1.238q5,0,10,0c1.4,0,2.244.662,2.292,1.76.05,1.128-.83,1.868-2.292,1.873-3.692.012-7.384,0-11.183,0v5.382h37.7V53.795h-1.346q-8.252,0-16.5,0a10.775,10.775,0,0,1-1.2-.033,1.659,1.659,0,0,1-1.6-1.783,1.706,1.706,0,0,1,1.6-1.8,10.275,10.275,0,0,1,1.444-.02h17.619c.43-2.7,2.071-3.819,4.759-3.679V41.113c0-2.168.03-4.338-.029-6.5a1.54,1.54,0,0,0-.631-1.076,2.552,2.552,0,0,1-1.245-2.317c-.006-1.486,0-2.972,0-4.457,0-2.785.451-3.3,3.327-3.626V18.27c0-1.165-.005-2.329,0-3.494.011-2.075.853-2.958,2.962-3.119.193-.015.386-.042.618-.068.027-.23.067-.423.07-.618.008-.681,0-1.361,0-2.178-.436-.026-.818-.043-1.2-.074a1.7,1.7,0,0,1-1.7-1.689,1.716,1.716,0,0,1,1.612-1.9c2.086-.07,4.176-.065,6.263-.007a1.813,1.813,0,0,1,1.7,1.857,1.834,1.834,0,0,1-1.8,1.742c-.315.027-.631.033-1.042.052v2.8c.365.034.715.055,1.062.1a2.673,2.673,0,0,1,2.534,2.832c.024,2.847.006,5.694.006,8.614.485.064.911.1,1.329.179a2.044,2.044,0,0,1,1.88,2.026c.063,2.125.109,4.259-.039,6.376-.044.627-.758,1.21-1.173,1.807-.186.268-.562.521-.565.784-.039,3.574-.027,7.148-.028,10.722V46.45c2.6-.073,4.324.947,4.72,3.706h4.8c3.694,0,7.389-.011,11.083,0a3.314,3.314,0,0,1,3.546,3.529c.013,1.847.008,3.694,0,5.542a3.348,3.348,0,0,1-3.643,3.678q-7.228.015-14.457,0h-1.384c-.758,2.554-2.64,3.157-5.05,3.114-4.5-.08-9-.067-13.492,0-2.311.032-3.983-.742-4.706-3.078h-37.9c-.727,2.359-2.442,3.116-4.792,3.08-4.536-.07-9.075-.02-13.613-.021-2.844,0-3.631-.485-4.927-3.09-2.161,0-4.364.006-6.566,0-1.4-.005-2.215-.676-2.231-1.8s.794-1.82,2.19-1.831c2.166-.018,4.332,0,6.6,0V53.893h-15.72v5.325c.582.028,1.134.03,1.681.085a1.642,1.642,0,0,1,1.621,1.62,1.692,1.692,0,0,1-1.411,1.946,4.564,4.564,0,0,1-5.577-2.359Zm39.019-2.331h-15.81V62.168h15.81Zm61.185,0H-331.72v11.95h15.808Zm3.752,3.633v5.35h15.739v-5.35Zm-69.664-7.42v-12.6h-6.325v12.6Zm54.764-.029h6.345V33.82h-6.345Zm-52.914-16.361V27.03h-10.063v3.016Zm51.044.008h10.118v-2.99h-10.118Zm-54.244-6.906V15.479h-3.664v7.669Zm57.486-7.7v7.7h3.63v-7.7Z" transform="translate(0 -48.07)" fill="#91b40d"/>
    <path id="Path_4380" data-name="Path 4380" d="M-321.506-63.3c0,1.525-.569,2.362-1.682,2.473-1.2.12-1.988-.746-2.037-2.233-.059-1.755.671-2.8,1.916-2.745C-322.17-65.76-321.506-64.837-321.506-63.3Z" transform="translate(-61.629 0)" fill="#91b40d"/>
    <path id="Path_4381" data-name="Path 4381" d="M-131.142-63.177c-.005,1.462-.546,2.4-1.594,2.391-.591-.006-1.585-.367-1.686-.753a7.255,7.255,0,0,1-.092-3.194c.085-.418,1.024-.881,1.608-.932C-131.783-65.763-131.136-64.733-131.142-63.177Z" transform="translate(-190.857 -0.095)" fill="#91b40d"/>
    <path id="Path_4382" data-name="Path 4382" d="M-321.507-39.539c-.007,1.882-1.256,2.95-2.647,2.257-1.039-.517-1.082-1.476-1.075-2.46a2.089,2.089,0,0,1,1.152-2.173C-322.68-42.542-321.5-41.451-321.507-39.539Z" transform="translate(-61.628 -16.084)" fill="#91b40d"/>
    <path id="Path_4383" data-name="Path 4383" d="M-131.409-39.406a8.073,8.073,0,0,1-1.308,2.064,1.536,1.536,0,0,1-2.223-.4,3.441,3.441,0,0,1-.029-3.609,1.694,1.694,0,0,1,2.14-.529,2.14,2.14,0,0,1,1.133,2.3Z" transform="translate(-190.303 -16.104)" fill="#91b40d"/>
    <path id="Path_4384" data-name="Path 4384" d="M-371.153-33.807a3.539,3.539,0,0,1,2.7,2.8,1.874,1.874,0,0,1-1.906,1.757,3.5,3.5,0,0,1-2.688-2.816A1.811,1.811,0,0,1-371.153-33.807Z" transform="translate(-29.205 -21.701)" fill="#91b40d"/>
    <path id="Path_4385" data-name="Path 4385" d="M-88.4-29.243a1.876,1.876,0,0,1-1.824-1.841,3.556,3.556,0,0,1,2.789-2.72,1.811,1.811,0,0,1,1.81,1.828A3.515,3.515,0,0,1-88.4-29.243Z" transform="translate(-220.983 -21.704)" fill="#91b40d"/>
    <path id="Path_4386" data-name="Path 4386" d="M-258.8-48.784a3.512,3.512,0,0,1-2.748,2.752,1.915,1.915,0,0,1-1.812-1.867,3.561,3.561,0,0,1,2.783-2.734A1.782,1.782,0,0,1-258.8-48.784Z" transform="translate(-103.584 -10.293)" fill="#91b40d"/>
    <path id="Path_4387" data-name="Path 4387" d="M-195.232-47.914a1.921,1.921,0,0,1-1.794,1.886,3.527,3.527,0,0,1-2.765-2.735,1.779,1.779,0,0,1,1.758-1.866A3.549,3.549,0,0,1-195.232-47.914Z" transform="translate(-146.685 -10.295)" fill="#91b40d"/>
    <path id="Path_4388" data-name="Path 4388" d="M-181.349-33.805a3.363,3.363,0,0,1,2.731,2.739,1.8,1.8,0,0,1-1.806,1.822A3.62,3.62,0,0,1-183.2-32,1.856,1.856,0,0,1-181.349-33.805Z" transform="translate(-157.937 -21.703)" fill="#91b40d"/>
    <path id="Path_4389" data-name="Path 4389" d="M-353.524-12.576a3.36,3.36,0,0,1-2.694-2.781,1.851,1.851,0,0,1,1.852-1.8,3.622,3.622,0,0,1,2.709,2.816A1.81,1.81,0,0,1-353.524-12.576Z" transform="translate(-40.615 -32.99)" fill="#91b40d"/>
    <path id="Path_4390" data-name="Path 4390" d="M-104.174-17.17a1.853,1.853,0,0,1,1.8,1.859A3.431,3.431,0,0,1-105-12.588a1.815,1.815,0,0,1-1.932-1.7A3.563,3.563,0,0,1-104.174-17.17Z" transform="translate(-209.648 -32.983)" fill="#91b40d"/>
    <path id="Path_4391" data-name="Path 4391" d="M-275.434-31.971a3.611,3.611,0,0,1-2.8,2.726,1.8,1.8,0,0,1-1.779-1.849,3.363,3.363,0,0,1,2.757-2.712A1.851,1.851,0,0,1-275.434-31.971Z" transform="translate(-92.289 -21.703)" fill="#91b40d"/>
    <path id="Path_4392" data-name="Path 4392" d="M-321.219-15.57a7.386,7.386,0,0,1-1.209,2.023,1.675,1.675,0,0,1-2.606-.932,5.763,5.763,0,0,1-.126-1.9,1.733,1.733,0,0,1,1.854-1.784,1.822,1.822,0,0,1,1.821,1.848c.019.2,0,.4,0,.6Z" transform="translate(-61.658 -32.307)" fill="#91b40d"/>
    <path id="Path_4393" data-name="Path 4393" d="M-131.62-15.667c-.014,1.587-.667,2.419-1.887,2.4-1.31-.018-1.954-1.051-1.832-2.938a1.84,1.84,0,0,1,2.066-1.96C-132.138-18.058-131.606-17.253-131.62-15.667Z" transform="translate(-190.379 -32.303)" fill="#91b40d"/>
    <path id="Path_4394" data-name="Path 4394" d="M-385.3-47.919a1.816,1.816,0,0,1-1.76,1.882,3.641,3.641,0,0,1-2.8-2.733,1.873,1.873,0,0,1,1.8-1.869A3.424,3.424,0,0,1-385.3-47.919Z" transform="translate(-17.804 -10.288)" fill="#91b40d"/>
    <path id="Path_4395" data-name="Path 4395" d="M-68.728-48.806a3.646,3.646,0,0,1-2.758,2.78,1.822,1.822,0,0,1-1.8-1.845,3.433,3.433,0,0,1,2.722-2.759A1.867,1.867,0,0,1-68.728-48.806Z" transform="translate(-232.465 -10.295)" fill="#91b40d"/>
    <path id="Path_4396" data-name="Path 4396" d="M-294.189-17.161a1.837,1.837,0,0,1,1.806,1.865,3.387,3.387,0,0,1-2.66,2.716,1.867,1.867,0,0,1-1.913-1.763A3.7,3.7,0,0,1-294.189-17.161Z" transform="translate(-80.8 -32.989)" fill="#91b40d"/>
    <path id="Path_4397" data-name="Path 4397" d="M-161.663-14.358a1.863,1.863,0,0,1-1.9,1.78,3.367,3.367,0,0,1-2.677-2.7,1.843,1.843,0,0,1,1.791-1.881A3.687,3.687,0,0,1-161.663-14.358Z" transform="translate(-169.437 -32.991)" fill="#91b40d"/>
  </g>
</svg>
